<mxfile host="app.diagrams.net" modified="2024-03-26T17:29:10.218Z" agent="Mozilla/5.0 (Windows NT 10.0; Win64; x64) AppleWebKit/537.36 (KHTML, like Gecko) Chrome/122.0.0.0 Safari/537.36" etag="wpPwe9C8hJg6N7TxFvlh" version="24.1.0" type="device">
  <diagram name="Page-1" id="PCNRDWl9QVgs4ZQSKhMl">
    <mxGraphModel dx="3160" dy="2329" grid="1" gridSize="10" guides="1" tooltips="1" connect="1" arrows="1" fold="1" page="1" pageScale="1" pageWidth="827" pageHeight="1169" math="0" shadow="0">
      <root>
        <mxCell id="0" />
        <mxCell id="1" parent="0" />
        <mxCell id="78C_M9ZaKs3Rytn90o39-1" value="&lt;font size=&quot;3&quot;&gt;student&lt;/font&gt;" style="rounded=0;whiteSpace=wrap;html=1;" parent="1" vertex="1">
          <mxGeometry x="-40" y="-70" width="170" height="60" as="geometry" />
        </mxCell>
        <mxCell id="78C_M9ZaKs3Rytn90o39-2" value="&lt;span style=&quot;font-size: 14px;&quot;&gt;User Name&lt;/span&gt;" style="ellipse;whiteSpace=wrap;html=1;" parent="1" vertex="1">
          <mxGeometry x="-310" y="-210" width="120" height="70" as="geometry" />
        </mxCell>
        <mxCell id="78C_M9ZaKs3Rytn90o39-3" value="&lt;font style=&quot;font-size: 14px;&quot;&gt;Name&lt;/font&gt;" style="ellipse;whiteSpace=wrap;html=1;strokeWidth=3;" parent="1" vertex="1">
          <mxGeometry x="-235" width="120" height="70" as="geometry" />
        </mxCell>
        <mxCell id="78C_M9ZaKs3Rytn90o39-4" value="&lt;font style=&quot;font-size: 14px;&quot;&gt;FirstName&lt;/font&gt;" style="ellipse;whiteSpace=wrap;html=1;" parent="1" vertex="1">
          <mxGeometry x="-390" y="-40" width="110" height="70" as="geometry" />
        </mxCell>
        <mxCell id="78C_M9ZaKs3Rytn90o39-5" value="&lt;font style=&quot;font-size: 14px;&quot;&gt;LastName&lt;/font&gt;" style="ellipse;whiteSpace=wrap;html=1;" parent="1" vertex="1">
          <mxGeometry x="-355" y="70" width="110" height="70" as="geometry" />
        </mxCell>
        <mxCell id="78C_M9ZaKs3Rytn90o39-6" value="&lt;span style=&quot;font-size: 14px;&quot;&gt;RegistrationNo:&lt;br&gt;&lt;br&gt;&lt;/span&gt;" style="ellipse;whiteSpace=wrap;html=1;" parent="1" vertex="1">
          <mxGeometry x="-210" y="-370" width="170" height="80" as="geometry" />
        </mxCell>
        <mxCell id="78C_M9ZaKs3Rytn90o39-7" value="&lt;font style=&quot;font-size: 14px;&quot;&gt;Age&lt;/font&gt;" style="ellipse;whiteSpace=wrap;html=1;dashed=1;dashPattern=8 8;strokeWidth=2;" parent="1" vertex="1">
          <mxGeometry x="-55" y="-420" width="115" height="70" as="geometry" />
        </mxCell>
        <mxCell id="78C_M9ZaKs3Rytn90o39-8" value="&lt;font style=&quot;font-size: 14px;&quot;&gt;Date of Birth&lt;/font&gt;" style="ellipse;whiteSpace=wrap;html=1;" parent="1" vertex="1">
          <mxGeometry x="70" y="-400" width="120" height="80" as="geometry" />
        </mxCell>
        <mxCell id="78C_M9ZaKs3Rytn90o39-9" value="" style="ellipse;whiteSpace=wrap;html=1;" parent="1" vertex="1">
          <mxGeometry x="-120" y="55" width="120" height="80" as="geometry" />
        </mxCell>
        <mxCell id="78C_M9ZaKs3Rytn90o39-10" value="&lt;font style=&quot;font-size: 14px;&quot;&gt;Address&lt;/font&gt;" style="ellipse;whiteSpace=wrap;html=1;" parent="1" vertex="1">
          <mxGeometry x="-115" y="60" width="110" height="70" as="geometry" />
        </mxCell>
        <mxCell id="78C_M9ZaKs3Rytn90o39-11" value="" style="endArrow=none;html=1;rounded=0;entryX=0.5;entryY=1;entryDx=0;entryDy=0;exitX=0.574;exitY=0.036;exitDx=0;exitDy=0;exitPerimeter=0;" parent="1" source="78C_M9ZaKs3Rytn90o39-1" target="78C_M9ZaKs3Rytn90o39-7" edge="1">
          <mxGeometry width="50" height="50" relative="1" as="geometry">
            <mxPoint x="230" as="sourcePoint" />
            <mxPoint x="280" y="-50" as="targetPoint" />
          </mxGeometry>
        </mxCell>
        <mxCell id="78C_M9ZaKs3Rytn90o39-12" value="" style="endArrow=none;html=1;rounded=0;exitX=0.75;exitY=0;exitDx=0;exitDy=0;entryX=0.356;entryY=1.03;entryDx=0;entryDy=0;entryPerimeter=0;" parent="1" source="78C_M9ZaKs3Rytn90o39-1" target="78C_M9ZaKs3Rytn90o39-8" edge="1">
          <mxGeometry width="50" height="50" relative="1" as="geometry">
            <mxPoint x="230" as="sourcePoint" />
            <mxPoint x="280" y="-50" as="targetPoint" />
          </mxGeometry>
        </mxCell>
        <mxCell id="78C_M9ZaKs3Rytn90o39-13" value="" style="endArrow=none;html=1;rounded=0;exitX=0.789;exitY=0.98;exitDx=0;exitDy=0;entryX=0.359;entryY=-0.002;entryDx=0;entryDy=0;entryPerimeter=0;exitPerimeter=0;" parent="1" source="78C_M9ZaKs3Rytn90o39-6" target="78C_M9ZaKs3Rytn90o39-1" edge="1">
          <mxGeometry width="50" height="50" relative="1" as="geometry">
            <mxPoint x="230" as="sourcePoint" />
            <mxPoint x="280" y="-50" as="targetPoint" />
          </mxGeometry>
        </mxCell>
        <mxCell id="78C_M9ZaKs3Rytn90o39-14" value="" style="endArrow=none;html=1;rounded=0;exitX=1;exitY=1;exitDx=0;exitDy=0;entryX=0.118;entryY=0;entryDx=0;entryDy=0;entryPerimeter=0;" parent="1" source="78C_M9ZaKs3Rytn90o39-2" target="78C_M9ZaKs3Rytn90o39-1" edge="1">
          <mxGeometry width="50" height="50" relative="1" as="geometry">
            <mxPoint x="230" as="sourcePoint" />
            <mxPoint x="280" y="-50" as="targetPoint" />
          </mxGeometry>
        </mxCell>
        <mxCell id="78C_M9ZaKs3Rytn90o39-15" value="" style="endArrow=none;html=1;rounded=0;exitX=0.954;exitY=0.284;exitDx=0;exitDy=0;exitPerimeter=0;entryX=0;entryY=0.75;entryDx=0;entryDy=0;" parent="1" source="78C_M9ZaKs3Rytn90o39-3" target="78C_M9ZaKs3Rytn90o39-1" edge="1">
          <mxGeometry width="50" height="50" relative="1" as="geometry">
            <mxPoint x="230" as="sourcePoint" />
            <mxPoint x="280" y="-50" as="targetPoint" />
          </mxGeometry>
        </mxCell>
        <mxCell id="78C_M9ZaKs3Rytn90o39-16" value="" style="endArrow=none;html=1;rounded=0;exitX=1;exitY=0.5;exitDx=0;exitDy=0;entryX=0;entryY=0;entryDx=0;entryDy=0;" parent="1" source="78C_M9ZaKs3Rytn90o39-4" target="78C_M9ZaKs3Rytn90o39-3" edge="1">
          <mxGeometry width="50" height="50" relative="1" as="geometry">
            <mxPoint x="230" as="sourcePoint" />
            <mxPoint x="280" y="-50" as="targetPoint" />
          </mxGeometry>
        </mxCell>
        <mxCell id="78C_M9ZaKs3Rytn90o39-17" value="" style="endArrow=none;html=1;rounded=0;exitX=1;exitY=0.5;exitDx=0;exitDy=0;entryX=0;entryY=1;entryDx=0;entryDy=0;" parent="1" source="78C_M9ZaKs3Rytn90o39-5" target="78C_M9ZaKs3Rytn90o39-3" edge="1">
          <mxGeometry width="50" height="50" relative="1" as="geometry">
            <mxPoint x="230" as="sourcePoint" />
            <mxPoint x="280" y="-50" as="targetPoint" />
          </mxGeometry>
        </mxCell>
        <mxCell id="78C_M9ZaKs3Rytn90o39-18" value="" style="endArrow=none;html=1;rounded=0;exitX=0.735;exitY=0.002;exitDx=0;exitDy=0;exitPerimeter=0;entryX=0.384;entryY=1.026;entryDx=0;entryDy=0;entryPerimeter=0;" parent="1" source="78C_M9ZaKs3Rytn90o39-10" target="78C_M9ZaKs3Rytn90o39-1" edge="1">
          <mxGeometry width="50" height="50" relative="1" as="geometry">
            <mxPoint x="230" as="sourcePoint" />
            <mxPoint x="280" y="-50" as="targetPoint" />
          </mxGeometry>
        </mxCell>
        <mxCell id="78C_M9ZaKs3Rytn90o39-19" value="&lt;font style=&quot;font-size: 14px;&quot;&gt;Lecture&lt;/font&gt;" style="rounded=0;whiteSpace=wrap;html=1;" parent="1" vertex="1">
          <mxGeometry x="550" y="-70" width="180" height="60" as="geometry" />
        </mxCell>
        <mxCell id="78C_M9ZaKs3Rytn90o39-20" value="&lt;font style=&quot;font-size: 14px;&quot;&gt;&lt;u&gt;ID&lt;/u&gt;&lt;/font&gt;" style="ellipse;whiteSpace=wrap;html=1;" parent="1" vertex="1">
          <mxGeometry x="-310" y="-130" width="120" height="80" as="geometry" />
        </mxCell>
        <mxCell id="78C_M9ZaKs3Rytn90o39-21" value="" style="endArrow=none;html=1;rounded=0;exitX=0.972;exitY=0.662;exitDx=0;exitDy=0;exitPerimeter=0;entryX=0;entryY=0.25;entryDx=0;entryDy=0;" parent="1" source="78C_M9ZaKs3Rytn90o39-20" target="78C_M9ZaKs3Rytn90o39-1" edge="1">
          <mxGeometry width="50" height="50" relative="1" as="geometry">
            <mxPoint x="40" y="-90" as="sourcePoint" />
            <mxPoint x="90" y="-140" as="targetPoint" />
          </mxGeometry>
        </mxCell>
        <mxCell id="78C_M9ZaKs3Rytn90o39-22" value="&lt;font style=&quot;font-size: 14px;&quot;&gt;Name&lt;/font&gt;" style="ellipse;whiteSpace=wrap;html=1;strokeWidth=3;" parent="1" vertex="1">
          <mxGeometry x="630" y="-230" width="120" height="70" as="geometry" />
        </mxCell>
        <mxCell id="78C_M9ZaKs3Rytn90o39-23" value="&lt;u&gt;&lt;font style=&quot;font-size: 14px;&quot;&gt;Lecture_ID&lt;/font&gt;&lt;/u&gt;" style="ellipse;whiteSpace=wrap;html=1;" parent="1" vertex="1">
          <mxGeometry x="480" y="-210" width="120" height="70" as="geometry" />
        </mxCell>
        <mxCell id="78C_M9ZaKs3Rytn90o39-24" value="&lt;font style=&quot;font-size: 14px;&quot;&gt;LastName&lt;/font&gt;" style="ellipse;whiteSpace=wrap;html=1;" parent="1" vertex="1">
          <mxGeometry x="750" y="-320" width="110" height="70" as="geometry" />
        </mxCell>
        <mxCell id="78C_M9ZaKs3Rytn90o39-25" value="&lt;font style=&quot;font-size: 14px;&quot;&gt;FirstName&lt;/font&gt;" style="ellipse;whiteSpace=wrap;html=1;" parent="1" vertex="1">
          <mxGeometry x="610" y="-330" width="110" height="70" as="geometry" />
        </mxCell>
        <mxCell id="78C_M9ZaKs3Rytn90o39-27" value="&lt;font style=&quot;font-size: 14px;&quot;&gt;User Name&lt;/font&gt;" style="ellipse;whiteSpace=wrap;html=1;" parent="1" vertex="1">
          <mxGeometry x="760" y="-190" width="110" height="70" as="geometry" />
        </mxCell>
        <mxCell id="78C_M9ZaKs3Rytn90o39-28" value="&lt;font style=&quot;font-size: 14px;&quot;&gt;Course&lt;/font&gt;" style="ellipse;whiteSpace=wrap;html=1;" parent="1" vertex="1">
          <mxGeometry x="830" y="-110" width="110" height="70" as="geometry" />
        </mxCell>
        <mxCell id="78C_M9ZaKs3Rytn90o39-29" value="&lt;font style=&quot;font-size: 14px;&quot;&gt;Department&lt;/font&gt;" style="ellipse;whiteSpace=wrap;html=1;" parent="1" vertex="1">
          <mxGeometry x="820" y="10" width="110" height="70" as="geometry" />
        </mxCell>
        <mxCell id="78C_M9ZaKs3Rytn90o39-30" value="" style="endArrow=none;html=1;rounded=0;entryX=0.432;entryY=1.031;entryDx=0;entryDy=0;entryPerimeter=0;exitX=0.667;exitY=0;exitDx=0;exitDy=0;exitPerimeter=0;" parent="1" source="78C_M9ZaKs3Rytn90o39-19" target="78C_M9ZaKs3Rytn90o39-22" edge="1">
          <mxGeometry width="50" height="50" relative="1" as="geometry">
            <mxPoint x="660" y="-90" as="sourcePoint" />
            <mxPoint x="680" y="-140" as="targetPoint" />
          </mxGeometry>
        </mxCell>
        <mxCell id="78C_M9ZaKs3Rytn90o39-31" value="" style="endArrow=none;html=1;rounded=0;entryX=0.562;entryY=0.997;entryDx=0;entryDy=0;entryPerimeter=0;exitX=0.439;exitY=0.003;exitDx=0;exitDy=0;exitPerimeter=0;" parent="1" source="78C_M9ZaKs3Rytn90o39-19" target="78C_M9ZaKs3Rytn90o39-23" edge="1">
          <mxGeometry width="50" height="50" relative="1" as="geometry">
            <mxPoint x="660" y="-90" as="sourcePoint" />
            <mxPoint x="710" y="-140" as="targetPoint" />
          </mxGeometry>
        </mxCell>
        <mxCell id="78C_M9ZaKs3Rytn90o39-32" value="" style="endArrow=none;html=1;rounded=0;exitX=0.5;exitY=1;exitDx=0;exitDy=0;" parent="1" source="78C_M9ZaKs3Rytn90o39-25" edge="1">
          <mxGeometry width="50" height="50" relative="1" as="geometry">
            <mxPoint x="660" y="-90" as="sourcePoint" />
            <mxPoint x="680" y="-230" as="targetPoint" />
          </mxGeometry>
        </mxCell>
        <mxCell id="78C_M9ZaKs3Rytn90o39-33" value="" style="endArrow=none;html=1;rounded=0;exitX=0.758;exitY=0.083;exitDx=0;exitDy=0;exitPerimeter=0;" parent="1" source="78C_M9ZaKs3Rytn90o39-22" target="78C_M9ZaKs3Rytn90o39-24" edge="1">
          <mxGeometry width="50" height="50" relative="1" as="geometry">
            <mxPoint x="760" y="-220" as="sourcePoint" />
            <mxPoint x="710" y="-140" as="targetPoint" />
          </mxGeometry>
        </mxCell>
        <mxCell id="78C_M9ZaKs3Rytn90o39-34" value="" style="endArrow=none;html=1;rounded=0;exitX=0.944;exitY=0;exitDx=0;exitDy=0;exitPerimeter=0;entryX=0;entryY=1;entryDx=0;entryDy=0;" parent="1" source="78C_M9ZaKs3Rytn90o39-19" target="78C_M9ZaKs3Rytn90o39-27" edge="1">
          <mxGeometry width="50" height="50" relative="1" as="geometry">
            <mxPoint x="660" y="-90" as="sourcePoint" />
            <mxPoint x="710" y="-140" as="targetPoint" />
          </mxGeometry>
        </mxCell>
        <mxCell id="78C_M9ZaKs3Rytn90o39-36" value="" style="endArrow=none;html=1;rounded=0;exitX=1;exitY=0.5;exitDx=0;exitDy=0;entryX=0.005;entryY=0.654;entryDx=0;entryDy=0;entryPerimeter=0;" parent="1" source="78C_M9ZaKs3Rytn90o39-19" target="78C_M9ZaKs3Rytn90o39-28" edge="1">
          <mxGeometry width="50" height="50" relative="1" as="geometry">
            <mxPoint x="660" y="-90" as="sourcePoint" />
            <mxPoint x="710" y="-140" as="targetPoint" />
          </mxGeometry>
        </mxCell>
        <mxCell id="78C_M9ZaKs3Rytn90o39-37" value="" style="endArrow=none;html=1;rounded=0;exitX=1;exitY=0.75;exitDx=0;exitDy=0;entryX=0;entryY=0;entryDx=0;entryDy=0;" parent="1" source="78C_M9ZaKs3Rytn90o39-19" target="78C_M9ZaKs3Rytn90o39-29" edge="1">
          <mxGeometry width="50" height="50" relative="1" as="geometry">
            <mxPoint x="660" y="-90" as="sourcePoint" />
            <mxPoint x="710" y="-140" as="targetPoint" />
          </mxGeometry>
        </mxCell>
        <mxCell id="78C_M9ZaKs3Rytn90o39-38" value="&lt;font style=&quot;font-size: 14px;&quot;&gt;Management Assistant&lt;/font&gt;" style="rounded=0;whiteSpace=wrap;html=1;" parent="1" vertex="1">
          <mxGeometry x="750" y="400" width="180" height="60" as="geometry" />
        </mxCell>
        <mxCell id="78C_M9ZaKs3Rytn90o39-39" value="&lt;font style=&quot;font-size: 14px;&quot;&gt;Name&lt;/font&gt;" style="ellipse;whiteSpace=wrap;html=1;strokeWidth=3;" parent="1" vertex="1">
          <mxGeometry x="1049" y="350" width="120" height="70" as="geometry" />
        </mxCell>
        <mxCell id="78C_M9ZaKs3Rytn90o39-40" value="&lt;u&gt;&lt;font style=&quot;font-size: 14px;&quot;&gt;Id&lt;/font&gt;&lt;/u&gt;" style="ellipse;whiteSpace=wrap;html=1;" parent="1" vertex="1">
          <mxGeometry x="780" y="565" width="120" height="70" as="geometry" />
        </mxCell>
        <mxCell id="78C_M9ZaKs3Rytn90o39-41" value="&lt;font style=&quot;font-size: 14px;&quot;&gt;LastName&lt;/font&gt;" style="ellipse;whiteSpace=wrap;html=1;" parent="1" vertex="1">
          <mxGeometry x="1200" y="400" width="110" height="70" as="geometry" />
        </mxCell>
        <mxCell id="78C_M9ZaKs3Rytn90o39-42" value="&lt;font style=&quot;font-size: 14px;&quot;&gt;FirstName&lt;/font&gt;" style="ellipse;whiteSpace=wrap;html=1;" parent="1" vertex="1">
          <mxGeometry x="1160" y="270" width="110" height="70" as="geometry" />
        </mxCell>
        <mxCell id="78C_M9ZaKs3Rytn90o39-43" value="&lt;font style=&quot;font-size: 14px;&quot;&gt;User Name&lt;/font&gt;" style="ellipse;whiteSpace=wrap;html=1;" parent="1" vertex="1">
          <mxGeometry x="920" y="520" width="110" height="70" as="geometry" />
        </mxCell>
        <mxCell id="78C_M9ZaKs3Rytn90o39-45" value="" style="endArrow=none;html=1;rounded=0;entryX=0;entryY=0.5;entryDx=0;entryDy=0;exitX=1;exitY=0.167;exitDx=0;exitDy=0;exitPerimeter=0;" parent="1" source="78C_M9ZaKs3Rytn90o39-38" target="78C_M9ZaKs3Rytn90o39-39" edge="1">
          <mxGeometry width="50" height="50" relative="1" as="geometry">
            <mxPoint x="810" y="420" as="sourcePoint" />
            <mxPoint x="760" y="330" as="targetPoint" />
          </mxGeometry>
        </mxCell>
        <mxCell id="78C_M9ZaKs3Rytn90o39-46" value="" style="endArrow=none;html=1;rounded=0;exitX=0.5;exitY=1;exitDx=0;exitDy=0;" parent="1" source="78C_M9ZaKs3Rytn90o39-38" target="78C_M9ZaKs3Rytn90o39-40" edge="1">
          <mxGeometry width="50" height="50" relative="1" as="geometry">
            <mxPoint x="720" y="460" as="sourcePoint" />
            <mxPoint x="720" y="550" as="targetPoint" />
          </mxGeometry>
        </mxCell>
        <mxCell id="78C_M9ZaKs3Rytn90o39-47" value="" style="endArrow=none;html=1;rounded=0;exitX=0;exitY=1;exitDx=0;exitDy=0;entryX=0.719;entryY=0.064;entryDx=0;entryDy=0;entryPerimeter=0;" parent="1" source="78C_M9ZaKs3Rytn90o39-42" target="78C_M9ZaKs3Rytn90o39-39" edge="1">
          <mxGeometry width="50" height="50" relative="1" as="geometry">
            <mxPoint x="740" y="380" as="sourcePoint" />
            <mxPoint x="760" y="240" as="targetPoint" />
          </mxGeometry>
        </mxCell>
        <mxCell id="78C_M9ZaKs3Rytn90o39-48" value="" style="endArrow=none;html=1;rounded=0;exitX=1;exitY=1;exitDx=0;exitDy=0;" parent="1" source="78C_M9ZaKs3Rytn90o39-39" target="78C_M9ZaKs3Rytn90o39-41" edge="1">
          <mxGeometry width="50" height="50" relative="1" as="geometry">
            <mxPoint x="840" y="250" as="sourcePoint" />
            <mxPoint x="790" y="330" as="targetPoint" />
          </mxGeometry>
        </mxCell>
        <mxCell id="78C_M9ZaKs3Rytn90o39-49" value="" style="endArrow=none;html=1;rounded=0;exitX=0.75;exitY=1;exitDx=0;exitDy=0;entryX=0;entryY=0;entryDx=0;entryDy=0;" parent="1" source="78C_M9ZaKs3Rytn90o39-38" target="78C_M9ZaKs3Rytn90o39-43" edge="1">
          <mxGeometry width="50" height="50" relative="1" as="geometry">
            <mxPoint x="740" y="380" as="sourcePoint" />
            <mxPoint x="790" y="330" as="targetPoint" />
          </mxGeometry>
        </mxCell>
        <mxCell id="78C_M9ZaKs3Rytn90o39-52" value="&lt;font style=&quot;font-size: 14px;&quot;&gt;Course&lt;/font&gt;" style="rounded=0;whiteSpace=wrap;html=1;" parent="1" vertex="1">
          <mxGeometry x="-175" y="350" width="190" height="60" as="geometry" />
        </mxCell>
        <mxCell id="78C_M9ZaKs3Rytn90o39-53" value="&lt;u&gt;&lt;font style=&quot;font-size: 14px;&quot;&gt;Course _ID&lt;/font&gt;&lt;/u&gt;" style="ellipse;whiteSpace=wrap;html=1;" parent="1" vertex="1">
          <mxGeometry x="-360" y="245" width="120" height="70" as="geometry" />
        </mxCell>
        <mxCell id="78C_M9ZaKs3Rytn90o39-54" value="&lt;font style=&quot;font-size: 14px;&quot;&gt;CourseCode&lt;/font&gt;" style="ellipse;whiteSpace=wrap;html=1;" parent="1" vertex="1">
          <mxGeometry x="-350" y="450" width="110" height="70" as="geometry" />
        </mxCell>
        <mxCell id="78C_M9ZaKs3Rytn90o39-55" value="&lt;font style=&quot;font-size: 14px;&quot;&gt;CourseName&lt;/font&gt;" style="ellipse;whiteSpace=wrap;html=1;" parent="1" vertex="1">
          <mxGeometry x="-380" y="340" width="110" height="70" as="geometry" />
        </mxCell>
        <mxCell id="78C_M9ZaKs3Rytn90o39-56" value="&lt;font style=&quot;font-size: 14px;&quot;&gt;Credits&lt;/font&gt;" style="ellipse;whiteSpace=wrap;html=1;" parent="1" vertex="1">
          <mxGeometry x="-150" y="570" width="110" height="70" as="geometry" />
        </mxCell>
        <mxCell id="78C_M9ZaKs3Rytn90o39-57" value="" style="endArrow=none;html=1;rounded=0;exitX=1;exitY=1;exitDx=0;exitDy=0;entryX=0.25;entryY=0;entryDx=0;entryDy=0;" parent="1" source="78C_M9ZaKs3Rytn90o39-53" target="78C_M9ZaKs3Rytn90o39-52" edge="1">
          <mxGeometry width="50" height="50" relative="1" as="geometry">
            <mxPoint x="510" y="300" as="sourcePoint" />
            <mxPoint x="-140" y="340" as="targetPoint" />
          </mxGeometry>
        </mxCell>
        <mxCell id="78C_M9ZaKs3Rytn90o39-58" value="" style="endArrow=none;html=1;rounded=0;exitX=1;exitY=0.5;exitDx=0;exitDy=0;entryX=0;entryY=0.5;entryDx=0;entryDy=0;" parent="1" source="78C_M9ZaKs3Rytn90o39-55" target="78C_M9ZaKs3Rytn90o39-52" edge="1">
          <mxGeometry width="50" height="50" relative="1" as="geometry">
            <mxPoint x="510" y="300" as="sourcePoint" />
            <mxPoint x="560" y="250" as="targetPoint" />
          </mxGeometry>
        </mxCell>
        <mxCell id="78C_M9ZaKs3Rytn90o39-59" value="" style="endArrow=none;html=1;rounded=0;exitX=1;exitY=0;exitDx=0;exitDy=0;entryX=0.107;entryY=1.037;entryDx=0;entryDy=0;entryPerimeter=0;" parent="1" source="78C_M9ZaKs3Rytn90o39-54" target="78C_M9ZaKs3Rytn90o39-52" edge="1">
          <mxGeometry width="50" height="50" relative="1" as="geometry">
            <mxPoint x="510" y="300" as="sourcePoint" />
            <mxPoint x="560" y="250" as="targetPoint" />
          </mxGeometry>
        </mxCell>
        <mxCell id="78C_M9ZaKs3Rytn90o39-60" value="" style="endArrow=none;html=1;rounded=0;entryX=0.658;entryY=1;entryDx=0;entryDy=0;entryPerimeter=0;" parent="1" source="78C_M9ZaKs3Rytn90o39-56" target="78C_M9ZaKs3Rytn90o39-52" edge="1">
          <mxGeometry width="50" height="50" relative="1" as="geometry">
            <mxPoint x="510" y="300" as="sourcePoint" />
            <mxPoint x="-46" y="420" as="targetPoint" />
          </mxGeometry>
        </mxCell>
        <mxCell id="78C_M9ZaKs3Rytn90o39-61" value="&lt;font style=&quot;font-size: 14px;&quot;&gt;Semester&lt;/font&gt;" style="ellipse;whiteSpace=wrap;html=1;" parent="1" vertex="1">
          <mxGeometry x="-295" y="530" width="120" height="80" as="geometry" />
        </mxCell>
        <mxCell id="78C_M9ZaKs3Rytn90o39-62" value="" style="endArrow=none;html=1;rounded=0;exitX=1;exitY=0;exitDx=0;exitDy=0;" parent="1" source="78C_M9ZaKs3Rytn90o39-61" edge="1">
          <mxGeometry width="50" height="50" relative="1" as="geometry">
            <mxPoint x="510" y="310" as="sourcePoint" />
            <mxPoint x="-90" y="410" as="targetPoint" />
          </mxGeometry>
        </mxCell>
        <mxCell id="78C_M9ZaKs3Rytn90o39-64" value="&lt;font style=&quot;font-size: 14px;&quot;&gt;Feed Back&lt;/font&gt;" style="rounded=0;whiteSpace=wrap;html=1;" parent="1" vertex="1">
          <mxGeometry x="364" y="490" width="190" height="70" as="geometry" />
        </mxCell>
        <mxCell id="78C_M9ZaKs3Rytn90o39-65" value="&lt;font style=&quot;font-size: 18px;&quot;&gt;d&lt;/font&gt;" style="ellipse;whiteSpace=wrap;html=1;aspect=fixed;" parent="1" vertex="1">
          <mxGeometry x="419" y="640" width="80" height="80" as="geometry" />
        </mxCell>
        <mxCell id="78C_M9ZaKs3Rytn90o39-66" value="" style="endArrow=classic;html=1;rounded=0;exitX=0.98;exitY=0.783;exitDx=0;exitDy=0;exitPerimeter=0;entryX=0.25;entryY=0;entryDx=0;entryDy=0;" parent="1" source="78C_M9ZaKs3Rytn90o39-65" target="78C_M9ZaKs3Rytn90o39-69" edge="1">
          <mxGeometry width="50" height="50" relative="1" as="geometry">
            <mxPoint x="360" y="710" as="sourcePoint" />
            <mxPoint x="440" y="870" as="targetPoint" />
          </mxGeometry>
        </mxCell>
        <mxCell id="78C_M9ZaKs3Rytn90o39-67" value="" style="endArrow=classic;html=1;rounded=0;entryX=0.668;entryY=-0.06;entryDx=0;entryDy=0;entryPerimeter=0;exitX=0.047;exitY=0.689;exitDx=0;exitDy=0;exitPerimeter=0;" parent="1" source="78C_M9ZaKs3Rytn90o39-65" target="78C_M9ZaKs3Rytn90o39-68" edge="1">
          <mxGeometry width="50" height="50" relative="1" as="geometry">
            <mxPoint x="335" y="713" as="sourcePoint" />
            <mxPoint x="270" y="870" as="targetPoint" />
          </mxGeometry>
        </mxCell>
        <mxCell id="78C_M9ZaKs3Rytn90o39-68" value="&lt;font style=&quot;font-size: 14px;&quot;&gt;Lecture Feedback&lt;/font&gt;&lt;span style=&quot;color: rgba(0, 0, 0, 0); font-family: monospace; font-size: 0px; text-align: start; text-wrap: nowrap;&quot;&gt;%3CmxGraphModel%3E%3Croot%3E%3CmxCell%20id%3D%220%22%2F%3E%3CmxCell%20id%3D%221%22%20parent%3D%220%22%2F%3E%3CmxCell%20id%3D%222%22%20value%3D%22%26lt%3Bfont%20style%3D%26quot%3Bfont-size%3A%2014px%3B%26quot%3B%26gt%3BFeed%20Back%26lt%3B%2Ffont%26gt%3B%22%20style%3D%22rounded%3D0%3BwhiteSpace%3Dwrap%3Bhtml%3D1%3B%22%20vertex%3D%221%22%20parent%3D%221%22%3E%3CmxGeometry%20x%3D%22270%22%20y%3D%22700%22%20width%3D%22190%22%20height%3D%2270%22%20as%3D%22geometry%22%2F%3E%3C%2FmxCell%3E%3C%2Froot%3E%3C%2FmxGraphModel%3E&lt;/span&gt;" style="rounded=0;whiteSpace=wrap;html=1;" parent="1" vertex="1">
          <mxGeometry x="180" y="760" width="190" height="70" as="geometry" />
        </mxCell>
        <mxCell id="78C_M9ZaKs3Rytn90o39-69" value="&lt;font style=&quot;font-size: 14px;&quot;&gt;Course Feedback&lt;/font&gt;" style="rounded=0;whiteSpace=wrap;html=1;" parent="1" vertex="1">
          <mxGeometry x="545" y="760" width="190" height="70" as="geometry" />
        </mxCell>
        <mxCell id="78C_M9ZaKs3Rytn90o39-71" value="" style="endArrow=none;html=1;rounded=0;entryX=0.5;entryY=1;entryDx=0;entryDy=0;exitX=0.5;exitY=0;exitDx=0;exitDy=0;" parent="1" source="78C_M9ZaKs3Rytn90o39-65" target="78C_M9ZaKs3Rytn90o39-64" edge="1">
          <mxGeometry width="50" height="50" relative="1" as="geometry">
            <mxPoint x="360" y="710" as="sourcePoint" />
            <mxPoint x="410" y="660" as="targetPoint" />
          </mxGeometry>
        </mxCell>
        <mxCell id="78C_M9ZaKs3Rytn90o39-73" value="&lt;u&gt;&lt;font style=&quot;font-size: 14px;&quot;&gt;Id&lt;/font&gt;&lt;/u&gt;" style="ellipse;whiteSpace=wrap;html=1;" parent="1" vertex="1">
          <mxGeometry x="-15" y="730" width="120" height="70" as="geometry" />
        </mxCell>
        <mxCell id="78C_M9ZaKs3Rytn90o39-74" value="&lt;font style=&quot;font-size: 14px;&quot;&gt;Lecture Name&lt;/font&gt;" style="ellipse;whiteSpace=wrap;html=1;" parent="1" vertex="1">
          <mxGeometry x="-20" y="840" width="110" height="70" as="geometry" />
        </mxCell>
        <mxCell id="78C_M9ZaKs3Rytn90o39-75" value="&lt;font style=&quot;font-size: 14px;&quot;&gt;course code&lt;/font&gt;" style="ellipse;whiteSpace=wrap;html=1;" parent="1" vertex="1">
          <mxGeometry x="770" y="900" width="120" height="70" as="geometry" />
        </mxCell>
        <mxCell id="78C_M9ZaKs3Rytn90o39-76" value="&lt;font style=&quot;font-size: 14px;&quot;&gt;Course Name&lt;/font&gt;" style="ellipse;whiteSpace=wrap;html=1;" parent="1" vertex="1">
          <mxGeometry x="827" y="830" width="110" height="70" as="geometry" />
        </mxCell>
        <mxCell id="78C_M9ZaKs3Rytn90o39-77" value="&lt;span style=&quot;font-size: 14px;&quot;&gt;&lt;u&gt;id&lt;/u&gt;&lt;/span&gt;" style="ellipse;whiteSpace=wrap;html=1;" parent="1" vertex="1">
          <mxGeometry x="800" y="740" width="120" height="70" as="geometry" />
        </mxCell>
        <mxCell id="78C_M9ZaKs3Rytn90o39-78" value="" style="endArrow=none;html=1;rounded=0;exitX=1;exitY=0.25;exitDx=0;exitDy=0;entryX=0;entryY=0.5;entryDx=0;entryDy=0;" parent="1" source="78C_M9ZaKs3Rytn90o39-69" target="78C_M9ZaKs3Rytn90o39-77" edge="1">
          <mxGeometry width="50" height="50" relative="1" as="geometry">
            <mxPoint x="450" y="710" as="sourcePoint" />
            <mxPoint x="788" y="755" as="targetPoint" />
          </mxGeometry>
        </mxCell>
        <mxCell id="78C_M9ZaKs3Rytn90o39-81" value="" style="endArrow=none;html=1;rounded=0;entryX=0.25;entryY=1;entryDx=0;entryDy=0;exitX=0.5;exitY=0;exitDx=0;exitDy=0;" parent="1" target="78C_M9ZaKs3Rytn90o39-69" edge="1" source="z9TRqWa3FrY4eCr8a69K-11">
          <mxGeometry width="50" height="50" relative="1" as="geometry">
            <mxPoint x="600" y="889" as="sourcePoint" />
            <mxPoint x="490" y="830" as="targetPoint" />
          </mxGeometry>
        </mxCell>
        <mxCell id="78C_M9ZaKs3Rytn90o39-82" value="" style="endArrow=none;html=1;strokeWidth=1;rounded=0;exitX=1;exitY=0.5;exitDx=0;exitDy=0;entryX=0;entryY=0.25;entryDx=0;entryDy=0;" parent="1" source="78C_M9ZaKs3Rytn90o39-73" target="78C_M9ZaKs3Rytn90o39-68" edge="1">
          <mxGeometry width="50" height="50" relative="1" as="geometry">
            <mxPoint x="450" y="710" as="sourcePoint" />
            <mxPoint x="90" y="800" as="targetPoint" />
          </mxGeometry>
        </mxCell>
        <mxCell id="78C_M9ZaKs3Rytn90o39-83" value="" style="endArrow=none;html=1;rounded=0;exitX=0.734;exitY=0.016;exitDx=0;exitDy=0;exitPerimeter=0;entryX=-0.014;entryY=0.906;entryDx=0;entryDy=0;entryPerimeter=0;" parent="1" source="78C_M9ZaKs3Rytn90o39-74" target="78C_M9ZaKs3Rytn90o39-68" edge="1">
          <mxGeometry width="50" height="50" relative="1" as="geometry">
            <mxPoint x="450" y="710" as="sourcePoint" />
            <mxPoint x="220" y="830" as="targetPoint" />
          </mxGeometry>
        </mxCell>
        <mxCell id="78C_M9ZaKs3Rytn90o39-84" value="&lt;font style=&quot;font-size: 14px;&quot;&gt;Follow&lt;/font&gt;" style="rhombus;whiteSpace=wrap;html=1;" parent="1" vertex="1">
          <mxGeometry x="60" y="120" width="80" height="80" as="geometry" />
        </mxCell>
        <mxCell id="78C_M9ZaKs3Rytn90o39-85" value="" style="endArrow=none;html=1;rounded=0;entryX=0.811;entryY=0.983;entryDx=0;entryDy=0;exitX=0.5;exitY=0;exitDx=0;exitDy=0;entryPerimeter=0;" parent="1" source="78C_M9ZaKs3Rytn90o39-84" target="78C_M9ZaKs3Rytn90o39-1" edge="1">
          <mxGeometry width="50" height="50" relative="1" as="geometry">
            <mxPoint x="450" y="180" as="sourcePoint" />
            <mxPoint x="90" y="40" as="targetPoint" />
            <Array as="points" />
          </mxGeometry>
        </mxCell>
        <mxCell id="78C_M9ZaKs3Rytn90o39-87" value="" style="endArrow=none;html=1;rounded=0;exitX=0.5;exitY=1;exitDx=0;exitDy=0;" parent="1" source="78C_M9ZaKs3Rytn90o39-84" edge="1">
          <mxGeometry width="50" height="50" relative="1" as="geometry">
            <mxPoint x="450" y="180" as="sourcePoint" />
            <mxPoint x="-10" y="350" as="targetPoint" />
            <Array as="points">
              <mxPoint x="100" y="250" />
              <mxPoint x="-10" y="250" />
            </Array>
          </mxGeometry>
        </mxCell>
        <mxCell id="78C_M9ZaKs3Rytn90o39-88" value="" style="endArrow=none;html=1;rounded=0;" parent="1" target="78C_M9ZaKs3Rytn90o39-89" edge="1">
          <mxGeometry width="50" height="50" relative="1" as="geometry">
            <mxPoint x="130" y="-40" as="sourcePoint" />
            <mxPoint x="270" y="-40" as="targetPoint" />
          </mxGeometry>
        </mxCell>
        <mxCell id="78C_M9ZaKs3Rytn90o39-89" value="&lt;font style=&quot;font-size: 14px;&quot;&gt;Teach&lt;/font&gt;" style="rhombus;whiteSpace=wrap;html=1;" parent="1" vertex="1">
          <mxGeometry x="270" y="-80" width="80" height="80" as="geometry" />
        </mxCell>
        <mxCell id="78C_M9ZaKs3Rytn90o39-90" value="" style="endArrow=none;html=1;rounded=0;exitX=1;exitY=0.5;exitDx=0;exitDy=0;entryX=0;entryY=0.5;entryDx=0;entryDy=0;" parent="1" source="78C_M9ZaKs3Rytn90o39-89" target="78C_M9ZaKs3Rytn90o39-19" edge="1">
          <mxGeometry width="50" height="50" relative="1" as="geometry">
            <mxPoint x="450" y="180" as="sourcePoint" />
            <mxPoint x="500" y="130" as="targetPoint" />
          </mxGeometry>
        </mxCell>
        <mxCell id="78C_M9ZaKs3Rytn90o39-91" value="" style="endArrow=none;html=1;rounded=0;exitX=1;exitY=0.25;exitDx=0;exitDy=0;" parent="1" source="78C_M9ZaKs3Rytn90o39-52" target="78C_M9ZaKs3Rytn90o39-92" edge="1">
          <mxGeometry width="50" height="50" relative="1" as="geometry">
            <mxPoint x="20" y="370" as="sourcePoint" />
            <mxPoint x="360" y="230" as="targetPoint" />
            <Array as="points">
              <mxPoint x="140" y="365" />
            </Array>
          </mxGeometry>
        </mxCell>
        <mxCell id="78C_M9ZaKs3Rytn90o39-92" value="&lt;font style=&quot;font-size: 14px;&quot;&gt;Teach&lt;/font&gt;" style="rhombus;whiteSpace=wrap;html=1;" parent="1" vertex="1">
          <mxGeometry x="364" y="170" width="80" height="80" as="geometry" />
        </mxCell>
        <mxCell id="78C_M9ZaKs3Rytn90o39-93" value="" style="endArrow=none;html=1;rounded=0;entryX=0.333;entryY=1.037;entryDx=0;entryDy=0;entryPerimeter=0;" parent="1" source="78C_M9ZaKs3Rytn90o39-92" target="78C_M9ZaKs3Rytn90o39-19" edge="1">
          <mxGeometry width="50" height="50" relative="1" as="geometry">
            <mxPoint x="450" y="180" as="sourcePoint" />
            <mxPoint x="500" y="130" as="targetPoint" />
            <Array as="points">
              <mxPoint x="610" y="70" />
            </Array>
          </mxGeometry>
        </mxCell>
        <mxCell id="78C_M9ZaKs3Rytn90o39-94" value="" style="endArrow=none;html=1;rounded=0;exitX=1;exitY=0.5;exitDx=0;exitDy=0;entryX=0;entryY=0.5;entryDx=0;entryDy=0;" parent="1" source="78C_M9ZaKs3Rytn90o39-64" target="78C_M9ZaKs3Rytn90o39-96" edge="1">
          <mxGeometry width="50" height="50" relative="1" as="geometry">
            <mxPoint x="550" y="450" as="sourcePoint" />
            <mxPoint x="600" y="400" as="targetPoint" />
            <Array as="points">
              <mxPoint x="590" y="525" />
            </Array>
          </mxGeometry>
        </mxCell>
        <mxCell id="78C_M9ZaKs3Rytn90o39-96" value="&lt;font style=&quot;font-size: 14px;&quot;&gt;Manage&lt;/font&gt;" style="rhombus;whiteSpace=wrap;html=1;" parent="1" vertex="1">
          <mxGeometry x="620" y="485" width="80" height="80" as="geometry" />
        </mxCell>
        <mxCell id="78C_M9ZaKs3Rytn90o39-97" value="" style="endArrow=none;html=1;rounded=0;exitX=0.5;exitY=0;exitDx=0;exitDy=0;entryX=0;entryY=0.75;entryDx=0;entryDy=0;" parent="1" source="78C_M9ZaKs3Rytn90o39-96" target="78C_M9ZaKs3Rytn90o39-38" edge="1">
          <mxGeometry width="50" height="50" relative="1" as="geometry">
            <mxPoint x="420" y="490" as="sourcePoint" />
            <mxPoint x="470" y="440" as="targetPoint" />
            <Array as="points">
              <mxPoint x="660" y="445" />
            </Array>
          </mxGeometry>
        </mxCell>
        <mxCell id="78C_M9ZaKs3Rytn90o39-98" value="" style="endArrow=none;html=1;rounded=0;exitX=0;exitY=0.5;exitDx=0;exitDy=0;" parent="1" source="78C_M9ZaKs3Rytn90o39-99" edge="1">
          <mxGeometry width="50" height="50" relative="1" as="geometry">
            <mxPoint x="70" y="520" as="sourcePoint" />
            <mxPoint x="-10" y="410" as="targetPoint" />
            <Array as="points">
              <mxPoint x="-12" y="525" />
            </Array>
          </mxGeometry>
        </mxCell>
        <mxCell id="78C_M9ZaKs3Rytn90o39-99" value="&lt;font style=&quot;font-size: 14px;&quot;&gt;Give&lt;/font&gt;" style="rhombus;whiteSpace=wrap;html=1;" parent="1" vertex="1">
          <mxGeometry x="140" y="485" width="80" height="80" as="geometry" />
        </mxCell>
        <mxCell id="78C_M9ZaKs3Rytn90o39-100" value="" style="endArrow=none;html=1;rounded=0;exitX=1;exitY=0.5;exitDx=0;exitDy=0;entryX=0;entryY=0.5;entryDx=0;entryDy=0;" parent="1" source="78C_M9ZaKs3Rytn90o39-99" target="78C_M9ZaKs3Rytn90o39-64" edge="1">
          <mxGeometry width="50" height="50" relative="1" as="geometry">
            <mxPoint x="420" y="490" as="sourcePoint" />
            <mxPoint x="470" y="440" as="targetPoint" />
          </mxGeometry>
        </mxCell>
        <mxCell id="78C_M9ZaKs3Rytn90o39-101" value="&lt;span style=&quot;font-size: 14px;&quot;&gt;Date&lt;/span&gt;" style="ellipse;whiteSpace=wrap;html=1;" parent="1" vertex="1">
          <mxGeometry x="30" y="550" width="120" height="50" as="geometry" />
        </mxCell>
        <mxCell id="78C_M9ZaKs3Rytn90o39-102" value="&lt;span style=&quot;font-size: 14px;&quot;&gt;Time&lt;/span&gt;" style="ellipse;whiteSpace=wrap;html=1;" parent="1" vertex="1">
          <mxGeometry x="200" y="550" width="120" height="50" as="geometry" />
        </mxCell>
        <mxCell id="78C_M9ZaKs3Rytn90o39-103" value="" style="endArrow=none;html=1;rounded=0;exitX=0.678;exitY=0.049;exitDx=0;exitDy=0;exitPerimeter=0;entryX=0.125;entryY=0.688;entryDx=0;entryDy=0;entryPerimeter=0;" parent="1" source="78C_M9ZaKs3Rytn90o39-101" target="78C_M9ZaKs3Rytn90o39-99" edge="1">
          <mxGeometry width="50" height="50" relative="1" as="geometry">
            <mxPoint x="290" y="490" as="sourcePoint" />
            <mxPoint x="340" y="440" as="targetPoint" />
          </mxGeometry>
        </mxCell>
        <mxCell id="78C_M9ZaKs3Rytn90o39-104" value="" style="endArrow=none;html=1;rounded=0;exitX=1;exitY=1;exitDx=0;exitDy=0;entryX=0.333;entryY=0;entryDx=0;entryDy=0;entryPerimeter=0;" parent="1" source="78C_M9ZaKs3Rytn90o39-99" target="78C_M9ZaKs3Rytn90o39-102" edge="1">
          <mxGeometry width="50" height="50" relative="1" as="geometry">
            <mxPoint x="290" y="490" as="sourcePoint" />
            <mxPoint x="230" y="549" as="targetPoint" />
          </mxGeometry>
        </mxCell>
        <mxCell id="78C_M9ZaKs3Rytn90o39-105" value="" style="endArrow=none;html=1;rounded=0;exitX=1;exitY=0.75;exitDx=0;exitDy=0;" parent="1" source="78C_M9ZaKs3Rytn90o39-52" target="78C_M9ZaKs3Rytn90o39-106" edge="1">
          <mxGeometry width="50" height="50" relative="1" as="geometry">
            <mxPoint x="290" y="220" as="sourcePoint" />
            <mxPoint x="360" y="395" as="targetPoint" />
            <Array as="points">
              <mxPoint x="100" y="395" />
              <mxPoint x="100" y="415" />
            </Array>
          </mxGeometry>
        </mxCell>
        <mxCell id="78C_M9ZaKs3Rytn90o39-106" value="&lt;font style=&quot;font-size: 14px;&quot;&gt;Manage&lt;/font&gt;" style="rhombus;whiteSpace=wrap;html=1;" parent="1" vertex="1">
          <mxGeometry x="404" y="375" width="80" height="80" as="geometry" />
        </mxCell>
        <mxCell id="78C_M9ZaKs3Rytn90o39-107" value="" style="endArrow=none;html=1;rounded=0;exitX=1;exitY=0.5;exitDx=0;exitDy=0;entryX=0;entryY=0.25;entryDx=0;entryDy=0;" parent="1" source="78C_M9ZaKs3Rytn90o39-106" target="78C_M9ZaKs3Rytn90o39-38" edge="1">
          <mxGeometry width="50" height="50" relative="1" as="geometry">
            <mxPoint x="290" y="220" as="sourcePoint" />
            <mxPoint x="340" y="170" as="targetPoint" />
          </mxGeometry>
        </mxCell>
        <mxCell id="CLCvWg3l20X67m5flm71-2" value="" style="endArrow=none;html=1;rounded=0;entryX=0.265;entryY=0.962;entryDx=0;entryDy=0;entryPerimeter=0;exitX=0.86;exitY=-0.03;exitDx=0;exitDy=0;exitPerimeter=0;" parent="1" source="78C_M9ZaKs3Rytn90o39-1" target="CLCvWg3l20X67m5flm71-1" edge="1">
          <mxGeometry width="50" height="50" relative="1" as="geometry">
            <mxPoint x="110" y="-80" as="sourcePoint" />
            <mxPoint x="270" y="-40" as="targetPoint" />
          </mxGeometry>
        </mxCell>
        <mxCell id="CLCvWg3l20X67m5flm71-1" value="&lt;font style=&quot;font-size: 14px;&quot;&gt;Academic Year&amp;nbsp;&lt;/font&gt;" style="ellipse;whiteSpace=wrap;html=1;" parent="1" vertex="1">
          <mxGeometry x="170" y="-340" width="120" height="80" as="geometry" />
        </mxCell>
        <mxCell id="CLCvWg3l20X67m5flm71-4" value="&lt;font style=&quot;font-size: 14px;&quot;&gt;Department&lt;/font&gt;" style="ellipse;whiteSpace=wrap;html=1;" parent="1" vertex="1">
          <mxGeometry x="-200" y="190" width="120" height="80" as="geometry" />
        </mxCell>
        <mxCell id="CLCvWg3l20X67m5flm71-5" value="" style="endArrow=none;html=1;rounded=0;entryX=0.385;entryY=0.05;entryDx=0;entryDy=0;entryPerimeter=0;" parent="1" target="78C_M9ZaKs3Rytn90o39-52" edge="1">
          <mxGeometry width="50" height="50" relative="1" as="geometry">
            <mxPoint x="-140" y="270" as="sourcePoint" />
            <mxPoint x="-100" y="340" as="targetPoint" />
          </mxGeometry>
        </mxCell>
        <mxCell id="CLCvWg3l20X67m5flm71-6" value="Outlook Address" style="ellipse;whiteSpace=wrap;html=1;" parent="1" vertex="1">
          <mxGeometry x="700" y="55" width="120" height="80" as="geometry" />
        </mxCell>
        <mxCell id="CLCvWg3l20X67m5flm71-7" value="" style="endArrow=none;html=1;rounded=0;exitX=0;exitY=0;exitDx=0;exitDy=0;entryX=0.75;entryY=1;entryDx=0;entryDy=0;" parent="1" source="CLCvWg3l20X67m5flm71-6" target="78C_M9ZaKs3Rytn90o39-19" edge="1">
          <mxGeometry width="50" height="50" relative="1" as="geometry">
            <mxPoint x="360" y="310" as="sourcePoint" />
            <mxPoint x="650" as="targetPoint" />
          </mxGeometry>
        </mxCell>
        <mxCell id="CLCvWg3l20X67m5flm71-8" value="M" style="text;html=1;align=center;verticalAlign=middle;whiteSpace=wrap;rounded=0;" parent="1" vertex="1">
          <mxGeometry x="135" y="-50" width="60" height="50" as="geometry" />
        </mxCell>
        <mxCell id="CLCvWg3l20X67m5flm71-9" value="M" style="text;html=1;align=center;verticalAlign=middle;whiteSpace=wrap;rounded=0;" parent="1" vertex="1">
          <mxGeometry x="485" y="-50" width="60" height="50" as="geometry" />
        </mxCell>
        <mxCell id="CLCvWg3l20X67m5flm71-10" value="M" style="text;html=1;align=center;verticalAlign=middle;whiteSpace=wrap;rounded=0;" parent="1" vertex="1">
          <mxGeometry x="-55" y="300" width="60" height="50" as="geometry" />
        </mxCell>
        <mxCell id="CLCvWg3l20X67m5flm71-11" value="M" style="text;html=1;align=center;verticalAlign=middle;whiteSpace=wrap;rounded=0;" parent="1" vertex="1">
          <mxGeometry x="42.5" y="-10" width="70" height="50" as="geometry" />
        </mxCell>
        <mxCell id="CLCvWg3l20X67m5flm71-13" value="M" style="text;html=1;align=center;verticalAlign=middle;whiteSpace=wrap;rounded=0;" parent="1" vertex="1">
          <mxGeometry x="554" y="-10" width="60" height="50" as="geometry" />
        </mxCell>
        <mxCell id="CLCvWg3l20X67m5flm71-14" value="M" style="text;html=1;align=center;verticalAlign=middle;whiteSpace=wrap;rounded=0;" parent="1" vertex="1">
          <mxGeometry x="15" y="325" width="60" height="50" as="geometry" />
        </mxCell>
        <mxCell id="CLCvWg3l20X67m5flm71-15" value="M" style="text;html=1;align=center;verticalAlign=middle;whiteSpace=wrap;rounded=0;" parent="1" vertex="1">
          <mxGeometry x="15" y="390" width="60" height="50" as="geometry" />
        </mxCell>
        <mxCell id="CLCvWg3l20X67m5flm71-17" value="&lt;font style=&quot;font-size: 14px;&quot;&gt;1&lt;/font&gt;" style="text;html=1;align=center;verticalAlign=middle;whiteSpace=wrap;rounded=0;" parent="1" vertex="1">
          <mxGeometry x="680" y="390" width="60" height="30" as="geometry" />
        </mxCell>
        <mxCell id="CLCvWg3l20X67m5flm71-22" value="&lt;font style=&quot;font-size: 14px;&quot;&gt;1&lt;/font&gt;" style="text;html=1;align=center;verticalAlign=middle;whiteSpace=wrap;rounded=0;" parent="1" vertex="1">
          <mxGeometry x="680" y="450" width="60" height="30" as="geometry" />
        </mxCell>
        <mxCell id="CLCvWg3l20X67m5flm71-23" value="M" style="text;html=1;align=center;verticalAlign=middle;whiteSpace=wrap;rounded=0;" parent="1" vertex="1">
          <mxGeometry x="545" y="515" width="60" height="50" as="geometry" />
        </mxCell>
        <mxCell id="CLCvWg3l20X67m5flm71-25" value="M" style="text;html=1;align=center;verticalAlign=middle;whiteSpace=wrap;rounded=0;" parent="1" vertex="1">
          <mxGeometry x="304" y="520" width="60" height="50" as="geometry" />
        </mxCell>
        <mxCell id="CLCvWg3l20X67m5flm71-26" value="&lt;font style=&quot;font-size: 14px;&quot;&gt;1&lt;/font&gt;" style="text;html=1;align=center;verticalAlign=middle;whiteSpace=wrap;rounded=0;" parent="1" vertex="1">
          <mxGeometry x="-55" y="415" width="60" height="30" as="geometry" />
        </mxCell>
        <mxCell id="GyTZIsl8Zc3UAHbfCnny-1" value="&lt;font style=&quot;font-size: 14px;&quot;&gt;Batch&lt;/font&gt;" style="ellipse;whiteSpace=wrap;html=1;" parent="1" vertex="1">
          <mxGeometry x="230" y="-250" width="120" height="80" as="geometry" />
        </mxCell>
        <mxCell id="GyTZIsl8Zc3UAHbfCnny-2" value="" style="endArrow=none;html=1;rounded=0;entryX=0.258;entryY=0.922;entryDx=0;entryDy=0;entryPerimeter=0;exitX=1;exitY=0;exitDx=0;exitDy=0;" parent="1" source="78C_M9ZaKs3Rytn90o39-1" target="GyTZIsl8Zc3UAHbfCnny-1" edge="1">
          <mxGeometry width="50" height="50" relative="1" as="geometry">
            <mxPoint x="190" y="-140" as="sourcePoint" />
            <mxPoint x="240" y="-190" as="targetPoint" />
          </mxGeometry>
        </mxCell>
        <mxCell id="T-YOobtAod33nBSsJZBA-1" value="&lt;span style=&quot;font-size: 14px;&quot;&gt;&lt;u&gt;FeedBack NO:&lt;/u&gt;&lt;/span&gt;" style="ellipse;whiteSpace=wrap;html=1;" parent="1" vertex="1">
          <mxGeometry x="510" y="585" width="120" height="50" as="geometry" />
        </mxCell>
        <mxCell id="T-YOobtAod33nBSsJZBA-2" value="" style="endArrow=none;html=1;rounded=0;exitX=0.25;exitY=0.1;exitDx=0;exitDy=0;exitPerimeter=0;entryX=0.75;entryY=1;entryDx=0;entryDy=0;" parent="1" source="T-YOobtAod33nBSsJZBA-1" target="78C_M9ZaKs3Rytn90o39-64" edge="1">
          <mxGeometry width="50" height="50" relative="1" as="geometry">
            <mxPoint x="390" y="530" as="sourcePoint" />
            <mxPoint x="440" y="480" as="targetPoint" />
          </mxGeometry>
        </mxCell>
        <mxCell id="T-YOobtAod33nBSsJZBA-3" value="&lt;font style=&quot;font-size: 14px;&quot;&gt;Course&lt;/font&gt;" style="ellipse;whiteSpace=wrap;html=1;" parent="1" vertex="1">
          <mxGeometry x="45" y="910" width="110" height="70" as="geometry" />
        </mxCell>
        <mxCell id="T-YOobtAod33nBSsJZBA-4" value="" style="endArrow=none;html=1;rounded=0;exitX=0.653;exitY=-0.009;exitDx=0;exitDy=0;exitPerimeter=0;entryX=0.302;entryY=0.986;entryDx=0;entryDy=0;entryPerimeter=0;" parent="1" source="T-YOobtAod33nBSsJZBA-3" target="78C_M9ZaKs3Rytn90o39-68" edge="1">
          <mxGeometry width="50" height="50" relative="1" as="geometry">
            <mxPoint x="330" y="870" as="sourcePoint" />
            <mxPoint x="247" y="833" as="targetPoint" />
          </mxGeometry>
        </mxCell>
        <mxCell id="N81RqiXfNUEfIM3Eek4F-1" value="&lt;font style=&quot;font-size: 48px;&quot;&gt;&lt;b&gt;STUDENT FEEDBACK MANEGMENT SYSTEM (ER - DIAGRAM)&lt;/b&gt;&lt;/font&gt;" style="text;html=1;align=center;verticalAlign=middle;whiteSpace=wrap;rounded=0;" parent="1" vertex="1">
          <mxGeometry x="-266" y="-600" width="1450" height="50" as="geometry" />
        </mxCell>
        <mxCell id="N81RqiXfNUEfIM3Eek4F-2" style="edgeStyle=orthogonalEdgeStyle;rounded=0;orthogonalLoop=1;jettySize=auto;html=1;exitX=0.5;exitY=1;exitDx=0;exitDy=0;" parent="1" source="N81RqiXfNUEfIM3Eek4F-1" target="N81RqiXfNUEfIM3Eek4F-1" edge="1">
          <mxGeometry relative="1" as="geometry" />
        </mxCell>
        <mxCell id="z9TRqWa3FrY4eCr8a69K-1" value="&lt;font style=&quot;font-size: 14px;&quot;&gt;Question&lt;/font&gt;" style="ellipse;whiteSpace=wrap;html=1;" vertex="1" parent="1">
          <mxGeometry x="180" y="930" width="110" height="70" as="geometry" />
        </mxCell>
        <mxCell id="z9TRqWa3FrY4eCr8a69K-2" value="&lt;font style=&quot;font-size: 14px;&quot;&gt;Feedback_level&lt;/font&gt;" style="ellipse;whiteSpace=wrap;html=1;" vertex="1" parent="1">
          <mxGeometry x="334" y="930" width="110" height="70" as="geometry" />
        </mxCell>
        <mxCell id="z9TRqWa3FrY4eCr8a69K-3" value="" style="endArrow=none;html=1;rounded=0;exitX=0.555;exitY=1.02;exitDx=0;exitDy=0;exitPerimeter=0;entryX=0.675;entryY=-0.037;entryDx=0;entryDy=0;entryPerimeter=0;" edge="1" parent="1" source="78C_M9ZaKs3Rytn90o39-68" target="z9TRqWa3FrY4eCr8a69K-1">
          <mxGeometry width="50" height="50" relative="1" as="geometry">
            <mxPoint x="290" y="840" as="sourcePoint" />
            <mxPoint x="340" y="790" as="targetPoint" />
          </mxGeometry>
        </mxCell>
        <mxCell id="z9TRqWa3FrY4eCr8a69K-4" value="" style="endArrow=none;html=1;rounded=0;entryX=0.369;entryY=-0.003;entryDx=0;entryDy=0;entryPerimeter=0;" edge="1" parent="1" target="z9TRqWa3FrY4eCr8a69K-2">
          <mxGeometry width="50" height="50" relative="1" as="geometry">
            <mxPoint x="333" y="830" as="sourcePoint" />
            <mxPoint x="340" y="790" as="targetPoint" />
          </mxGeometry>
        </mxCell>
        <mxCell id="z9TRqWa3FrY4eCr8a69K-6" value="" style="endArrow=none;html=1;rounded=0;entryX=0.035;entryY=0.289;entryDx=0;entryDy=0;entryPerimeter=0;exitX=1;exitY=0.75;exitDx=0;exitDy=0;" edge="1" parent="1" source="78C_M9ZaKs3Rytn90o39-69" target="78C_M9ZaKs3Rytn90o39-76">
          <mxGeometry width="50" height="50" relative="1" as="geometry">
            <mxPoint x="750" y="820" as="sourcePoint" />
            <mxPoint x="490" y="790" as="targetPoint" />
          </mxGeometry>
        </mxCell>
        <mxCell id="z9TRqWa3FrY4eCr8a69K-7" value="" style="endArrow=none;html=1;rounded=0;entryX=0.75;entryY=1;entryDx=0;entryDy=0;" edge="1" parent="1" source="78C_M9ZaKs3Rytn90o39-75" target="78C_M9ZaKs3Rytn90o39-69">
          <mxGeometry width="50" height="50" relative="1" as="geometry">
            <mxPoint x="770" y="940" as="sourcePoint" />
            <mxPoint x="500" y="800" as="targetPoint" />
          </mxGeometry>
        </mxCell>
        <mxCell id="z9TRqWa3FrY4eCr8a69K-9" value="&lt;font style=&quot;font-size: 14px;&quot;&gt;Question&lt;/font&gt;" style="ellipse;whiteSpace=wrap;html=1;" vertex="1" parent="1">
          <mxGeometry x="655" y="940" width="110" height="70" as="geometry" />
        </mxCell>
        <mxCell id="z9TRqWa3FrY4eCr8a69K-11" value="&lt;font style=&quot;font-size: 14px;&quot;&gt;Feedback_level&lt;/font&gt;" style="ellipse;whiteSpace=wrap;html=1;" vertex="1" parent="1">
          <mxGeometry x="529" y="930" width="110" height="70" as="geometry" />
        </mxCell>
        <mxCell id="z9TRqWa3FrY4eCr8a69K-12" value="" style="endArrow=none;html=1;rounded=0;exitX=0.5;exitY=0;exitDx=0;exitDy=0;entryX=0.5;entryY=1;entryDx=0;entryDy=0;" edge="1" parent="1" source="z9TRqWa3FrY4eCr8a69K-9" target="78C_M9ZaKs3Rytn90o39-69">
          <mxGeometry width="50" height="50" relative="1" as="geometry">
            <mxPoint x="440" y="840" as="sourcePoint" />
            <mxPoint x="490" y="790" as="targetPoint" />
          </mxGeometry>
        </mxCell>
        <mxCell id="z9TRqWa3FrY4eCr8a69K-13" value="&lt;font style=&quot;font-size: 14px;&quot;&gt;password&lt;/font&gt;" style="ellipse;whiteSpace=wrap;html=1;" vertex="1" parent="1">
          <mxGeometry x="-295" y="-300" width="120" height="70" as="geometry" />
        </mxCell>
        <mxCell id="z9TRqWa3FrY4eCr8a69K-14" value="" style="endArrow=none;html=1;rounded=0;exitX=0.93;exitY=0.769;exitDx=0;exitDy=0;exitPerimeter=0;entryX=0.25;entryY=0;entryDx=0;entryDy=0;" edge="1" parent="1" source="z9TRqWa3FrY4eCr8a69K-13" target="78C_M9ZaKs3Rytn90o39-1">
          <mxGeometry width="50" height="50" relative="1" as="geometry">
            <mxPoint x="-10" y="-100" as="sourcePoint" />
            <mxPoint x="40" y="-150" as="targetPoint" />
          </mxGeometry>
        </mxCell>
        <mxCell id="z9TRqWa3FrY4eCr8a69K-15" value="&lt;font style=&quot;font-size: 14px;&quot;&gt;password&lt;/font&gt;" style="ellipse;whiteSpace=wrap;html=1;" vertex="1" parent="1">
          <mxGeometry x="1010" y="445" width="110" height="70" as="geometry" />
        </mxCell>
        <mxCell id="z9TRqWa3FrY4eCr8a69K-18" value="" style="endArrow=none;html=1;rounded=0;entryX=0.041;entryY=0.336;entryDx=0;entryDy=0;entryPerimeter=0;" edge="1" parent="1" target="z9TRqWa3FrY4eCr8a69K-15">
          <mxGeometry width="50" height="50" relative="1" as="geometry">
            <mxPoint x="930" y="440" as="sourcePoint" />
            <mxPoint x="998" y="490" as="targetPoint" />
          </mxGeometry>
        </mxCell>
      </root>
    </mxGraphModel>
  </diagram>
</mxfile>
